<?xml version="1.0" encoding="UTF-8" standalone="no"?><!-- Generator: Gravit.io --><svg xmlns="http://www.w3.org/2000/svg" xmlns:xlink="http://www.w3.org/1999/xlink" style="isolation:isolate" viewBox="0 0 150 150" width="150pt" height="150pt"><path d=" M 150 0 L 150 150 L 103.261 150 L 103.261 92.391 L 122.826 92.391 L 126.087 69.565 L 103.261 69.565 L 103.261 53.261 Q 103.556 48.492 105.435 46.739 C 107.313 44.987 109.575 43.699 111.957 43.478 Q 114.338 43.257 126.087 43.478 L 126.087 23.913 Q 112.453 22.213 106.522 22.826 C 100.591 23.44 96.494 24.178 90.217 28.261 C 83.941 32.343 82.397 38.995 81.522 42.391 Q 80.646 45.788 80.435 53.261 L 80.435 69.565 L 60.87 69.565 L 60.87 92.391 L 80.435 92.391 L 80.435 150 L 0 150 L 0 0 L 150 0 Z " fill="rgb(255,255,255)"/></svg>