<?xml version="1.0" encoding="UTF-8" standalone="no"?><!-- Generator: Gravit.io --><svg xmlns="http://www.w3.org/2000/svg" xmlns:xlink="http://www.w3.org/1999/xlink" style="isolation:isolate" viewBox="0 0 150 150" width="150pt" height="150pt"><path d=" M 43.596 0 L 106.404 0 C 130.465 0 150 19.535 150 43.596 L 150 106.404 C 150 130.465 130.465 150 106.404 150 L 43.596 150 C 19.535 150 0 130.465 0 106.404 L 0 43.596 C 0 19.535 19.535 0 43.596 0 Z  M 42.869 14.07 L 107.131 14.07 C 123.026 14.07 135.93 26.974 135.93 42.869 L 135.93 107.131 C 135.93 123.026 123.026 135.93 107.131 135.93 L 42.869 135.93 C 26.974 135.93 14.07 123.026 14.07 107.131 L 14.07 42.869 C 14.07 26.974 26.974 14.07 42.869 14.07 Z " fill-rule="evenodd" fill="rgb(255,255,255)"/><path d=" M 36.486 75 C 36.486 53.744 53.744 36.486 75 36.486 C 96.256 36.486 113.514 53.744 113.514 75 C 113.514 96.256 96.256 113.514 75 113.514 C 53.744 113.514 36.486 96.256 36.486 75 Z  M 49.936 75 C 49.936 61.167 61.167 49.936 75 49.936 C 88.833 49.936 100.064 61.167 100.064 75 C 100.064 88.833 88.833 100.064 75 100.064 C 61.167 100.064 49.936 88.833 49.936 75 Z " fill-rule="evenodd" fill="rgb(255,255,255)"/><circle vector-effect="non-scaling-stroke" cx="114.89330688406453" cy="35.159952064463276" r="8.966490229200886" fill="rgb(255,255,255)"/></svg>