<?xml version="1.0" encoding="UTF-8" standalone="no"?><!-- Generator: Gravit.io --><svg xmlns="http://www.w3.org/2000/svg" xmlns:xlink="http://www.w3.org/1999/xlink" style="isolation:isolate" viewBox="0 0 150 150" width="150pt" height="150pt"><path d=" M 103.533 38.244 C 103.533 33.678 107.24 29.971 111.805 29.971 C 116.371 29.971 120.078 33.678 120.078 38.244 C 120.078 42.81 116.371 46.516 111.805 46.516 C 107.24 46.516 103.533 42.81 103.533 38.244 L 103.533 38.244 L 103.533 38.244 Z  M 45.356 18.786 L 104.644 18.786 C 119.308 18.786 131.214 30.692 131.214 45.356 L 131.214 104.644 C 131.214 119.308 119.308 131.214 104.644 131.214 L 45.356 131.214 C 30.692 131.214 18.786 119.308 18.786 104.644 L 18.786 45.356 C 18.786 30.692 30.692 18.786 45.356 18.786 L 45.356 18.786 L 45.356 18.786 Z  M 46.027 5.805 L 103.973 5.805 C 126.172 5.805 144.195 23.828 144.195 46.027 L 144.195 103.973 C 144.195 126.172 126.172 144.195 103.973 144.195 L 46.027 144.195 C 23.828 144.195 5.805 126.172 5.805 103.973 L 5.805 46.027 C 5.805 23.828 23.828 5.805 46.027 5.805 L 46.027 5.805 L 46.027 5.805 Z  M 0 0 L 150 0 L 150 150 L 0 150 L 0 0 L 0 0 L 0 0 Z  M 51.876 75 C 51.876 62.238 62.238 51.876 75 51.876 C 87.762 51.876 98.124 62.238 98.124 75 C 98.124 87.762 87.762 98.124 75 98.124 C 62.238 98.124 51.876 87.762 51.876 75 L 51.876 75 Z  M 39.467 75 C 39.467 55.389 55.389 39.467 75 39.467 C 94.611 39.467 110.533 55.389 110.533 75 C 110.533 94.611 94.611 110.533 75 110.533 C 55.389 110.533 39.467 94.611 39.467 75 L 39.467 75 Z " fill-rule="evenodd" fill="rgb(255,255,255)"/></svg>