<?xml version="1.0" encoding="UTF-8" standalone="no"?><!-- Generator: Gravit.io --><svg xmlns="http://www.w3.org/2000/svg" xmlns:xlink="http://www.w3.org/1999/xlink" style="isolation:isolate" viewBox="0 0 150 150" width="150pt" height="150pt"><path d=" M 0 122.235 L 0 150 L 150 150 L 150 0 L 0 0 L 0 122.235 Q 19.186 123.5 30.565 118.112 Q 41.945 112.725 45.518 109.372 Q 33.534 109.482 23.638 99.861 Q 18.58 94.663 16.657 87.932 Q 21.027 88.922 24.161 88.647 Q 27.294 88.372 30.565 87.492 Q 18.773 84.991 11.737 75.426 Q 6.003 68.133 5.827 57.065 Q 9.071 59.044 13.084 59.868 Q 17.097 60.693 19.79 60.748 Q 12.067 55.525 8.603 47.06 C 5.14 38.594 6.212 31.997 6.597 29.358 Q 6.982 26.719 10.225 19.738 Q 19.598 31.062 31.747 38.759 C 43.896 46.455 49.284 47.142 55.111 48.901 Q 60.938 50.66 73.764 51.857 Q 70.698 34.978 81.66 23.453 C 92.622 11.929 105.412 13.756 110.19 14.74 C 114.968 15.724 119.747 18.394 122.277 20.221 Q 124.806 22.048 126.229 23.797 Q 132.77 22.288 136.64 20.692 Q 140.511 19.097 145.875 16.211 Q 143.176 23.137 140.799 25.649 Q 138.423 28.161 132.312 33.254 Q 137.88 32.575 142.089 31.251 Q 146.299 29.927 150 28.416 Q 143.464 37.04 140.799 39.246 Q 138.134 41.453 134.535 44.305 Q 134.739 55.773 133.255 63.634 C 131.771 71.495 127.813 83.122 124.514 89.279 C 121.216 95.436 113.162 108.245 103.927 115.446 C 94.691 122.648 86.28 128.887 71.273 132.845 C 56.265 136.803 40.46 137.133 25.343 133.285 Q 10.225 129.437 0 122.235 Z " fill-rule="evenodd" fill="rgb(255,255,255)"/></svg>