<?xml version="1.0" encoding="UTF-8" standalone="no"?><!-- Generator: Gravit.io --><svg xmlns="http://www.w3.org/2000/svg" xmlns:xlink="http://www.w3.org/1999/xlink" style="isolation:isolate" viewBox="0 56.011 148.845 34.269" width="148.845pt" height="34.269pt"><g><path d=" M 19.702 56.401 C 19.489 56.8 19.421 73.28 19.631 73.826 C 19.831 74.346 22.493 75.985 23.037 75.922 C 23.502 75.867 23.514 75.828 23.626 73.985 C 23.865 70.05 26.505 67.374 29.888 67.636 C 36.439 68.143 37.704 78.074 31.516 80.417 C 27.665 81.875 24.18 80.625 17.089 75.243 C 10.461 70.213 3.769 70.978 0.606 77.129 C -0.414 79.113 -0.342 79.201 2.351 79.269 L 4.419 79.322 L 4.913 78.525 C 7.399 74.517 9.827 75.003 18.206 81.185 C 28.381 88.691 40.03 84.673 39.562 73.818 C 39.212 65.739 31.347 60.894 24.75 64.695 C 23.597 65.36 23.605 65.385 23.605 60.721 C 23.605 57.677 23.542 56.425 23.381 56.265 C 22.973 55.857 19.933 55.97 19.702 56.401 Z  M 91.408 56.568 C 91.223 56.685 91.184 59.611 91.222 70.573 L 91.269 84.429 L 92.916 84.483 C 95.109 84.555 95.085 84.582 95.085 82.023 C 95.085 79.44 95.453 78.553 97.123 77.1 C 97.727 76.575 98.259 76.145 98.307 76.145 C 98.354 76.145 99.631 77.758 101.144 79.729 C 105.12 84.908 104.663 84.522 106.812 84.522 C 109.874 84.522 109.909 84.65 105.132 78.379 C 102.988 75.564 101.232 73.193 101.23 73.112 C 101.229 73.03 102.946 71.218 105.044 69.085 C 109.675 64.378 109.721 64.232 106.558 64.232 C 104.357 64.232 104.591 64.063 99.765 69.144 C 97.374 71.662 95.342 73.676 95.251 73.62 C 95.158 73.562 95.085 69.859 95.085 65.189 C 95.085 58.959 95.029 56.804 94.862 56.637 C 94.61 56.385 91.785 56.328 91.408 56.568 Z  M 50.596 64.15 C 43.986 65.575 40.594 73.106 43.711 79.436 C 47.337 86.8 58.745 86.681 62.315 79.242 C 66.279 70.984 59.484 62.234 50.596 64.15 Z  M 75.045 64.051 C 64.347 65.978 63.662 81.841 74.16 84.526 C 80.008 86.022 85.735 82.85 87.176 77.317 C 89.198 69.555 82.876 62.64 75.045 64.051 Z  M 117.038 64.3 C 113.36 65.292 111.456 69.09 113.027 72.302 C 113.863 74.011 115.284 74.877 119.031 75.964 C 122.784 77.052 124.001 78.11 123.256 79.636 C 122.246 81.702 118.37 81.682 114.986 79.593 C 113.536 78.699 113.316 78.734 112.407 80.008 C 111.327 81.521 111.403 81.803 113.173 82.865 C 118.501 86.06 125.346 85.037 126.933 80.808 C 128.379 76.956 126.543 74.28 121.303 72.605 C 117.38 71.35 116.492 70.783 116.492 69.53 C 116.492 67.368 120.111 66.956 123.607 68.72 C 125.019 69.433 125.317 69.408 125.959 68.521 C 127.271 66.709 127.206 66.337 125.414 65.435 C 122.873 64.156 119.347 63.678 117.038 64.3 Z  M 129.274 64.442 C 128.78 64.729 128.787 64.747 132.631 73.143 C 137.793 84.42 137.425 83.508 137.167 84.369 C 136.649 86.099 134.973 87.025 133.158 86.586 C 130.787 86.012 130.788 86.011 129.98 88.275 C 129.027 90.948 136.937 90.95 139.225 88.277 C 140.701 86.553 148.947 66.739 148.844 65.164 L 148.789 64.325 L 147.06 64.325 C 145.811 64.325 145.288 64.395 145.176 64.576 C 145.091 64.714 143.876 67.813 142.477 71.463 C 139.803 78.436 139.711 78.658 139.488 78.658 C 139.411 78.658 137.983 75.522 136.314 71.688 C 134.645 67.854 133.131 64.608 132.948 64.475 C 132.542 64.178 129.771 64.153 129.274 64.442 Z  M 55.091 68.037 C 59.461 69.542 60.765 75.635 57.48 79.199 C 54.579 82.346 49.304 81.506 47.388 77.592 C 44.664 72.029 49.45 66.093 55.091 68.037 Z  M 79.765 68.334 C 82.354 69.603 83.836 72.523 83.368 75.431 C 82.236 82.455 73.146 83.21 71.049 76.454 C 69.289 70.786 74.625 65.815 79.765 68.334 Z " fill-rule="evenodd" fill="rgb(255,255,255)"/></g></svg>