<?xml version="1.0" encoding="UTF-8" standalone="no"?><!-- Generator: Gravit.io --><svg xmlns="http://www.w3.org/2000/svg" xmlns:xlink="http://www.w3.org/1999/xlink" style="isolation:isolate" viewBox="0 0 250 289" width="250pt" height="289pt"><path d=" M 31.483 117.209 C 25.215 120.37 23.341 129.93 27.726 136.389 C 42.796 158.592 75.057 195.435 96.486 214.916 C 100.213 218.304 103.514 221.314 103.824 221.605 C 107.766 225.322 122.01 236.053 128.293 240.04 C 137.13 245.647 145.24 243.451 143.011 236.056 C 142.158 233.228 140.717 231.581 133.538 225.238 C 123.369 216.254 108.4 201.569 101.548 193.859 C 100.673 192.873 99.101 191.144 98.055 190.016 C 81.444 172.106 64.087 149.497 50.369 127.906 C 43.165 116.567 38.262 113.79 31.483 117.209 Z " fill-rule="evenodd" fill="rgb(255,255,255)"/><path d=" M 227.477 186.028 C 211.093 189.308 204.603 209.987 216.154 222.098 C 223.129 229.409 237.716 230.715 247.366 224.891 Q 249.062 223.867 250 222.479 L 244.385 217.373 Q 243.446 217.927 242.552 218.534 C 235.6 223.251 224.181 221.007 220.659 214.232 C 213.562 200.575 229.671 186.878 242.552 195.619 Q 243.406 196.199 244.125 196.733 L 250 191.539 Q 249.222 190.956 248.472 190.324 C 243.859 186.444 234.732 184.576 227.477 186.028 Z " fill-rule="evenodd" fill="rgb(255,255,255)"/><path d=" M 0 187.451 L 0 228 L 8.534 228 L 8.738 212.392 L 29.59 212.392 L 29.59 228 L 38.366 228 L 38.366 187.451 L 29.59 187.451 L 29.59 204.215 L 8.738 204.215 L 8.738 187.451 L 0 187.451 Z " fill-rule="evenodd" fill="rgb(255,255,255)"/><path d=" M 127.894 242.42 L 130.952 243.868 Q 130.376 254.795 130.292 256.209 C 128.644 283.922 128.369 287.014 127.57 286.794 C 126.698 286.552 123.518 279.979 123.209 277.78 C 122.786 274.765 121.93 259.78 121.363 247.414 L 127.894 242.42 Z " fill="rgb(255,255,255)"/><path d=" M 134.774 185.351 C 135.964 168.019 136.304 166.425 139.332 163.966 C 141.521 162.188 141.668 161.934 141.668 159.91 C 141.667 158.828 141.663 155.937 141.658 153.484 C 141.626 138.888 143.297 117.982 146.369 94.531 C 147.778 83.77 149.123 81.537 158.29 74.723 C 167.245 68.068 170.974 58.871 169.014 48.277 C 168.188 43.814 164.194 36.987 160.724 34.108 C 149.425 24.734 149.711 16.397 161.678 6.28 C 163.827 4.464 164.087 3.207 162.486 2.383 C 160.668 1.447 157.919 2.489 153.794 5.678 L 153.794 5.678 L 153.794 5.678 C 149.715 8.832 147.092 12.727 144.163 19.985 C 141.607 26.32 140.246 28.042 133.153 33.932 C 122.077 43.129 121.004 59.931 130.79 70.904 C 138.791 79.878 139.889 82.738 139.06 92.449 C 136.747 119.56 131.944 132.332 121.872 138.152 C 117.966 140.409 118.098 140.166 118.308 144.761 C 118.402 146.834 118.492 149.58 118.508 150.864 C 118.538 153.375 118.55 153.824 119.104 172.615 C 119.205 176.046 119.56 186.726 120.252 209.462 L 132.54 220.759 Q 134.228 193.309 134.774 185.351 Z  M 143.771 35.285 C 153.416 33.422 162.637 41.118 163.245 51.537 C 164.253 68.818 146.823 78.526 135.582 66.945 C 125.756 56.822 130.672 37.816 143.771 35.285 L 143.771 35.285 L 143.771 35.285 Z " fill-rule="evenodd" fill="rgb(255,255,255)"/><path d=" M 98.444 27.351 C 83.863 25.753 72.269 38.933 74.421 54.661 C 75.705 64.042 80.44 70.284 89.761 74.877 C 101.097 80.465 101.641 81.166 106.735 96.795 C 111.647 111.858 111.7 112.034 115.093 124.288 C 116.829 130.559 118.454 135.758 118.703 135.841 C 119.293 136.038 129.262 126.334 129.229 125.593 C 129.215 125.282 128.16 123.894 126.884 122.508 C 121.66 116.831 116.916 105.938 111.683 87.6 C 109.445 79.754 109.963 76.497 114.861 67.631 C 118.182 61.616 118.893 59.702 119.411 55.367 C 121.036 41.765 111.304 28.76 98.444 27.351 Z  M 104.498 35.77 C 115.53 43.044 116.541 59.529 106.422 67.143 C 96.406 74.679 81.874 67.139 80.317 53.599 C 78.595 38.612 92.858 28.096 104.498 35.77 Z " fill-rule="evenodd" fill="rgb(255,255,255)"/><path d=" M 135.212 245.494 C 134.287 258.481 132.775 275.605 132.273 278.297 C 131.761 281.045 128.688 286.737 127.572 287.007 C 126.734 287.21 126.636 286.257 126.342 274.987 C 126.212 269.967 125.949 260.263 125.51 244.275 L 128.09 242.204 L 135.212 245.494 Z " fill="rgb(255,255,255)"/><path d=" M 139.76 173.457 C 140.311 165.403 140.314 165.348 140.172 164.245 C 140.017 163.044 139.676 162.885 138.525 163.479 L 138.525 163.479 C 134.718 165.445 132.861 166.458 129.409 168.449 C 126.996 169.842 125.262 170.589 124.919 170.384 C 123.303 169.417 122.985 170.007 123.19 173.598 C 123.3 175.537 123.44 178.631 123.501 180.473 C 123.773 188.771 123.986 193.878 124.203 196.773 Q 124.489 207.108 124.661 213.42 L 136.29 224.294 Q 139.554 176.472 139.76 173.457 Z " fill="rgb(255,255,255)"/><path d=" M 122.86 244.301 L 122.86 244.301 C 120.61 245.764 113.402 253.07 110.748 256.576 C 106.422 262.292 104.794 262.949 104.834 258.965 C 104.871 255.186 108.459 249.496 115.038 242.78 L 115.038 242.78 C 115.979 241.82 117.64 240.21 120.485 237.666 L 125.901 241.75 Q 123.044 244.181 122.86 244.301 Z " fill="rgb(255,255,255)"/><path d=" M 164.546 214.175 C 170.33 208.339 172.785 205.305 184.576 189.421 C 190.51 181.43 199.593 170.662 208.55 161.002 C 214.321 154.779 222.855 144.971 223.622 143.68 C 226.227 139.298 223.631 132.255 216.756 125.055 C 213.008 121.129 213.306 121.026 206.591 128.589 L 206.591 128.589 C 203.463 132.114 199.887 136.112 198.646 137.475 C 196.861 139.434 189.709 147.433 183.736 154.152 C 176.686 162.081 174.193 164.862 169.51 170.024 C 166.463 173.383 163.324 176.879 162.534 177.794 C 161.744 178.708 159.105 181.657 156.668 184.347 C 151.509 190.045 151.411 190.273 152.975 192.959 C 159.419 204.015 156.635 210.867 140.973 222.507 C 140.428 222.912 139.079 224.014 137.265 225.238 L 142.149 230.119 Q 161.096 217.656 164.546 214.175 Z " fill="rgb(255,255,255)"/></svg>