<?xml version="1.0" encoding="UTF-8" standalone="no"?><!-- Generator: Gravit.io --><svg xmlns="http://www.w3.org/2000/svg" xmlns:xlink="http://www.w3.org/1999/xlink" style="isolation:isolate" viewBox="0 3.993 250 47.83" width="250pt" height="47.83pt"><path d=" M 116.352 3.993 L 116.352 4.593 L 114.368 4.625 L 114.368 10.15 L 113.517 10.15 L 113.517 4.625 L 111.424 4.625 L 111.424 3.993 L 116.352 3.993 L 116.352 3.993 Z  M 125.295 3.993 L 129.728 3.993 L 129.728 4.746 L 126.055 4.821 L 126.055 6.593 L 129.728 6.593 L 129.728 7.48 L 126.055 7.48 L 126.055 9.469 L 129.728 9.469 L 129.728 10.266 L 125.295 10.266 L 125.295 3.993 L 125.295 3.993 Z  M 118.709 3.993 L 118.709 6.593 L 122.337 6.593 L 122.337 3.993 L 123.233 3.993 L 123.233 10.266 L 122.337 10.266 L 122.337 7.48 L 118.709 7.48 L 118.709 10.266 L 117.823 10.266 L 117.823 3.993 L 118.709 3.993 L 118.709 3.993 Z  M 163.281 17.493 C 165.401 17.939 167.521 18.936 168.481 19.938 L 169.145 20.631 L 167.927 21.781 C 166.51 23.12 166.558 23.109 165.329 22.341 C 161.04 19.659 155.616 21.557 154.132 26.259 C 151.795 33.663 159.819 38.926 166.346 34.27 C 166.729 33.996 166.965 34.133 168.119 35.299 L 169.45 36.643 L 168.583 37.378 C 165.303 40.159 159.297 40.577 154.981 38.324 C 149.185 35.3 148.012 25.85 152.787 20.652 C 154.337 18.965 156.231 17.963 158.729 17.51 C 161.24 17.053 161.191 17.054 163.281 17.493 L 163.281 17.493 Z  M 4.064 17.879 L 4.064 26.744 L 14.29 26.825 L 14.29 17.929 L 18.502 17.879 L 18.502 39.27 L 14.626 39.27 L 14.449 30.657 L 4.064 30.657 L 4.064 39.27 L 0 39.27 L 0 17.879 L 4.064 17.879 L 4.064 17.879 Z  M 61.057 39.27 L 57.278 39.27 L 57.138 17.929 L 61.057 17.869 L 61.057 39.27 L 61.057 39.27 Z  M 250 18.028 L 250 21.539 L 235.192 21.539 L 235.192 18.028 L 250 18.028 L 250 18.028 Z  M 189.46 17.493 C 202.774 20.036 201.087 39.646 187.551 39.687 C 172.622 39.732 172.15 18.293 187.054 17.135 C 187.263 17.119 188.346 17.28 189.46 17.493 L 189.46 17.493 Z  M 185.84 21.174 C 182.723 21.605 180.206 24.823 180.219 28.36 C 180.258 38.441 193.896 39.029 194.348 28.969 C 194.593 23.499 191.24 20.427 185.84 21.174 L 185.84 21.174 Z  M 82.807 17.929 C 89.501 19.676 90.734 28.686 84.605 31.206 Q 83.984 31.462 83.475 31.895 L 89.496 39.27 L 84.605 39.396 L 78.51 32.169 L 74.355 32.169 L 74.355 39.196 L 70.671 39.196 L 70.671 17.929 Q 82.701 17.752 82.807 17.929 L 82.807 17.929 Z  M 74.355 21.69 L 74.355 28.458 L 78.51 28.458 C 81.379 28.372 82.115 28.395 82.807 27.916 C 85.153 26.38 84.85 22.855 82.279 21.759 Q 81.509 21.464 74.355 21.69 L 74.355 21.69 Z  M 217.667 17.877 C 227.921 19.541 229.432 34.746 219.731 38.648 Q 218.027 39.333 207.188 39.27 L 207.116 17.592 Q 215.35 17.501 217.667 17.877 L 217.667 17.877 Z  M 211.181 21.781 L 211.181 35.293 Q 217.307 35.458 219.138 34.504 C 223.554 32.205 223.148 24.352 218.504 22.226 Q 216.839 21.464 211.181 21.781 L 211.181 21.781 Z  M 39.752 17.865 L 49.326 39.196 L 45.352 39.27 L 43.463 35.344 L 32.142 35.344 L 30.153 39.27 L 25.948 39.27 L 35.588 17.865 L 39.752 17.865 L 39.752 17.865 Z  M 37.692 22.862 L 34.183 31.206 L 41.378 31.119 L 37.692 22.862 L 37.692 22.862 Z  M 250 27.053 L 250 30.209 L 235.192 30.209 L 235.192 26.87 L 250 27.053 L 250 27.053 Z  M 250 35.69 L 250 39.27 L 235.192 39.396 L 235.192 35.69 L 250 35.69 L 250 35.69 Z  M 106.795 45.564 Q 106.901 45.642 107.166 45.804 L 106.845 46.38 Q 106.554 46.305 106.426 46.236 C 105.358 45.715 103.979 45.93 103.53 46.38 C 103.022 46.995 103.445 47.654 105.423 48.138 C 107.763 48.712 108.181 50.382 106.845 51.434 C 105.919 52.083 103.778 51.871 102.539 51.155 Q 102.422 51.088 102.262 51.013 L 102.691 50.25 Q 102.912 50.337 103.063 50.413 C 103.214 50.49 103.384 50.582 103.546 50.667 C 104.485 51.157 105.658 51.163 106.368 50.667 C 107.216 49.956 106.918 49.206 104.421 48.535 C 102.6 48.1 101.986 46.749 103.039 45.747 C 103.826 45.128 105.58 44.95 106.795 45.564 L 106.795 45.564 Z  M 118.638 45.062 L 119.342 45.062 L 119.469 50.921 L 122.834 50.921 L 122.834 51.689 L 118.709 51.681 L 118.638 45.062 L 118.638 45.062 Z  M 134.288 45.369 L 135.048 45.369 L 139.268 50.372 L 139.268 45.369 L 139.906 45.369 L 139.906 51.689 L 139.268 51.689 L 135.048 46.613 Q 135.048 48.587 135.048 49.352 Q 135.048 50.261 135.048 51.681 L 134.288 51.681 L 134.288 45.369 L 134.288 45.369 Z  M 112.492 45.369 L 113.096 45.369 L 116.22 51.618 L 115.251 51.618 L 114.491 49.995 L 111.231 49.995 L 110.477 51.618 L 109.562 51.618 L 112.492 45.369 L 112.492 45.369 Z  M 112.837 46.475 L 111.615 49.136 L 114.083 49.136 L 112.837 46.475 L 112.837 46.475 Z  M 132.438 12.947 C 131.803 13.038 131.28 13.299 130.517 13.905 C 129.852 14.433 129.599 14.536 128.47 14.739 C 126.706 15.055 125.559 16.808 125.945 18.596 C 126.26 20.059 126.204 20.436 125.518 21.436 C 123.604 24.229 122.3 25.317 120.852 25.329 C 120.291 25.333 120.32 25.315 120.061 25.825 C 119.944 26.056 119.785 26.358 119.708 26.498 C 119.557 26.772 119.531 26.821 118.438 28.89 C 118.038 29.645 117.484 30.692 117.206 31.216 C 116.87 31.85 116.714 32.193 116.741 32.241 C 116.844 32.419 117.797 33.444 117.847 33.429 C 117.909 33.41 117.982 33.302 119.352 31.23 C 120.545 29.427 120.679 29.275 121.158 29.195 C 121.504 29.137 121.536 29.118 121.66 28.899 C 121.726 28.782 121.903 28.469 122.053 28.203 C 122.946 26.621 124.409 24.46 126.181 22.11 C 126.994 21.031 127.277 20.872 128.687 20.697 C 130.065 20.526 131.033 19.76 131.471 18.492 C 131.656 17.959 131.642 16.974 131.443 16.45 C 130.796 14.742 131.338 13.857 133.255 13.496 C 133.599 13.431 133.704 13.311 133.581 13.124 C 133.442 12.911 133.08 12.855 132.438 12.947 Z  M 112.385 14.748 C 110.601 15.135 109.753 17.148 110.627 18.919 C 111.149 19.976 111.954 20.526 113.235 20.7 C 114.794 20.912 114.885 20.973 116.103 22.617 C 117.277 24.201 117.291 24.219 118.175 25.532 C 118.627 26.203 119.024 26.753 119.057 26.753 C 119.134 26.753 119.928 25.214 119.894 25.128 C 119.881 25.092 119.701 24.97 119.496 24.856 C 118.655 24.393 117.666 23.294 116.325 21.336 C 115.751 20.499 115.683 20.094 115.912 18.854 C 116.066 18.013 116.075 17.759 115.965 17.227 C 115.62 15.558 113.958 14.407 112.385 14.748 Z  M 113.431 15.503 C 115.02 15.926 115.79 17.832 114.896 19.13 C 114.012 20.414 111.999 20.098 111.281 18.561 C 110.486 16.861 111.755 15.057 113.431 15.503 Z  M 129.536 15.537 C 130.694 15.927 131.22 17.326 130.647 18.491 C 129.695 20.424 127.213 20.405 126.706 18.462 C 126.264 16.763 127.963 15.007 129.536 15.537 Z  M 108.879 24.113 C 108.097 24.502 107.858 25.691 108.4 26.497 C 110.262 29.269 114.255 33.873 116.91 36.31 C 117.372 36.734 117.781 37.11 117.819 37.147 C 118.307 37.612 120.073 38.955 120.853 39.455 C 121.949 40.158 122.96 39.89 122.687 38.968 C 122.582 38.616 122.404 38.41 121.514 37.617 C 120.254 36.492 118.4 34.656 117.552 33.693 C 117.444 33.569 117.249 33.353 117.12 33.212 C 115.063 30.974 112.917 28.15 111.223 25.455 C 110.333 24.04 109.725 23.691 108.879 24.113 Z  M 130.614 25.39 C 130.227 25.83 129.783 26.329 129.629 26.499 C 129.408 26.744 128.521 27.742 127.781 28.581 C 126.907 29.57 126.598 29.917 126.017 30.562 C 125.639 30.981 125.25 31.417 125.152 31.531 C 125.054 31.645 124.727 32.013 124.425 32.349 C 123.785 33.06 123.773 33.089 123.969 33.422 C 124.775 34.795 124.432 35.649 122.488 37.104 C 122.218 37.306 121.998 37.49 121.998 37.513 C 121.998 37.589 122.58 38.122 122.664 38.123 C 122.909 38.126 124.715 36.771 125.417 36.058 C 126.135 35.329 126.439 34.951 127.9 32.969 C 128.635 31.972 129.761 30.629 130.871 29.423 C 131.587 28.646 132.645 27.422 132.74 27.261 C 133.062 26.715 132.736 25.839 131.878 24.946 C 131.41 24.459 131.447 24.446 130.614 25.39 Z  M 122.694 27.91 C 122.417 28.366 122.286 28.594 122.048 29.029 C 121.882 29.334 121.747 29.526 121.697 29.526 C 121.463 29.529 121.467 29.612 121.722 29.98 C 121.86 30.179 122.075 30.498 122.201 30.69 C 123.189 32.192 123.53 32.68 123.595 32.68 C 123.636 32.68 123.874 32.445 124.124 32.158 C 124.374 31.87 124.616 31.604 124.662 31.566 C 124.801 31.451 124.762 31.335 124.294 30.452 C 124.046 29.985 123.676 29.281 123.472 28.89 C 123.008 27.999 123.005 27.993 122.918 27.885 C 122.824 27.767 122.777 27.772 122.694 27.91 Z  M 133.267 32.579 C 131.228 32.987 130.421 35.561 131.858 37.068 C 132.726 37.978 134.541 38.14 135.742 37.415 Q 135.953 37.288 136.07 37.115 L 135.371 36.48 Q 135.254 36.549 135.143 36.624 C 134.278 37.211 132.857 36.932 132.419 36.089 C 131.536 34.389 133.54 32.685 135.143 33.773 Q 135.249 33.845 135.339 33.911 L 136.07 33.265 Q 135.973 33.192 135.88 33.114 C 135.306 32.631 134.17 32.399 133.267 32.579 Z  M 104.96 32.756 L 104.96 37.802 L 106.022 37.802 L 106.047 35.86 L 108.642 35.86 L 108.642 37.802 L 109.734 37.802 L 109.734 32.756 L 108.642 32.756 L 108.642 34.842 L 106.047 34.842 L 106.047 32.756 L 104.96 32.756 Z  M 115.063 35.284 C 114.733 35.817 112.656 39.948 112.428 40.526 C 112.326 40.783 112.267 41.69 112.347 41.77 C 112.42 41.842 112.639 41.525 114.519 38.626 C 114.812 38.172 115.287 37.445 115.574 37.01 C 116.202 36.056 116.198 36.129 115.657 35.615 C 115.141 35.125 115.156 35.134 115.063 35.284 Z  M 126.276 35.651 C 125.763 36.247 125.739 36.103 126.557 37.349 C 127.309 38.494 127.677 39.059 128.636 40.541 C 129.399 41.718 129.471 41.813 129.547 41.737 C 129.648 41.636 129.605 40.832 129.481 40.507 C 129.307 40.051 127.353 36.187 126.842 35.288 C 126.745 35.118 126.723 35.132 126.276 35.651 Z  M 119.269 39.638 C 118.453 40.476 118.008 41.186 118.005 41.656 C 118.002 42.152 118.204 42.069 118.74 41.356 C 119.069 40.919 119.963 40.007 120.243 39.824 C 120.439 39.695 120.401 39.572 120.103 39.372 C 119.749 39.133 119.764 39.128 119.269 39.638 Z  M 124.711 48.494 C 124.711 46.656 126.202 45.164 128.04 45.164 C 129.877 45.164 131.369 46.656 131.369 48.494 C 131.369 50.331 129.877 51.823 128.04 51.823 C 126.202 51.823 124.711 50.331 124.711 48.494 Z  M 125.549 48.529 C 125.549 47.154 126.665 46.038 128.04 46.038 C 129.415 46.038 130.531 47.154 130.531 48.529 C 130.531 49.904 129.415 51.02 128.04 51.02 C 126.665 51.02 125.549 49.904 125.549 48.529 Z " fill-rule="evenodd" fill="rgb(255,255,255)"/></svg>