<?xml version="1.0" encoding="UTF-8" standalone="no"?><!-- Generator: Gravit.io --><svg xmlns="http://www.w3.org/2000/svg" xmlns:xlink="http://www.w3.org/1999/xlink" style="isolation:isolate" viewBox="0 3.993 250 47.83" width="250pt" height="47.83pt"><g><g><path d=" M 116.352 3.993 L 116.352 4.593 L 114.368 4.625 L 114.368 10.15 L 113.517 10.15 L 113.517 4.625 L 111.424 4.625 L 111.424 3.993 L 116.352 3.993 L 116.352 3.993 Z  M 125.295 3.993 L 129.728 3.993 L 129.728 4.746 L 126.055 4.821 L 126.055 6.593 L 129.728 6.593 L 129.728 7.48 L 126.055 7.48 L 126.055 9.469 L 129.728 9.469 L 129.728 10.266 L 125.295 10.266 L 125.295 3.993 L 125.295 3.993 Z  M 118.709 3.993 L 118.709 6.593 L 122.337 6.593 L 122.337 3.993 L 123.233 3.993 L 123.233 10.266 L 122.337 10.266 L 122.337 7.48 L 118.709 7.48 L 118.709 10.266 L 117.823 10.266 L 117.823 3.993 L 118.709 3.993 L 118.709 3.993 Z  M 163.281 17.493 C 165.401 17.939 167.521 18.936 168.481 19.938 L 169.145 20.631 L 167.927 21.781 C 166.51 23.12 166.558 23.109 165.329 22.341 C 161.04 19.659 155.616 21.557 154.132 26.259 C 151.795 33.663 159.818 38.926 166.346 34.27 C 166.729 33.996 166.965 34.133 168.119 35.299 L 169.45 36.643 L 168.583 37.378 C 165.303 40.159 159.297 40.577 154.981 38.324 C 149.185 35.3 148.012 25.85 152.787 20.652 C 154.337 18.965 156.231 17.963 158.729 17.51 C 161.24 17.053 161.191 17.054 163.281 17.493 L 163.281 17.493 Z  M 4.064 17.879 L 4.064 26.744 L 14.29 26.825 L 14.29 17.929 L 18.502 17.879 L 18.502 39.27 L 14.626 39.27 L 14.449 30.657 L 4.064 30.657 L 4.064 39.27 L 0 39.27 L 0 17.879 L 4.064 17.879 L 4.064 17.879 Z  M 61.057 39.27 L 57.278 39.27 L 57.138 17.929 L 61.057 17.869 L 61.057 39.27 L 61.057 39.27 Z  M 250 18.028 L 250 21.539 L 235.192 21.539 L 235.192 18.028 L 250 18.028 L 250 18.028 Z  M 189.46 17.493 C 202.774 20.036 201.087 39.646 187.551 39.687 C 172.622 39.732 172.15 18.293 187.054 17.135 C 187.263 17.119 188.346 17.28 189.46 17.493 L 189.46 17.493 Z  M 185.84 21.174 C 182.723 21.605 180.206 24.823 180.219 28.36 C 180.258 38.441 193.896 39.029 194.348 28.969 C 194.593 23.499 191.24 20.427 185.84 21.174 L 185.84 21.174 Z  M 82.807 17.929 C 89.501 19.676 90.734 28.686 84.605 31.206 Q 83.984 31.462 83.475 31.895 L 89.496 39.27 L 84.605 39.396 L 78.51 32.169 L 74.355 32.169 L 74.355 39.196 L 70.671 39.196 L 70.671 17.929 Q 82.701 17.752 82.807 17.929 L 82.807 17.929 Z  M 74.355 21.69 L 74.355 28.458 L 78.51 28.458 C 81.379 28.372 82.115 28.395 82.807 27.916 C 85.153 26.38 84.85 22.855 82.279 21.759 Q 81.509 21.464 74.355 21.69 L 74.355 21.69 Z  M 217.667 17.877 C 227.921 19.541 229.432 34.746 219.731 38.648 Q 218.027 39.333 207.188 39.27 L 207.116 17.592 Q 215.35 17.501 217.667 17.877 L 217.667 17.877 Z  M 211.181 21.781 L 211.181 35.293 Q 217.307 35.458 219.138 34.504 C 223.554 32.205 223.148 24.352 218.504 22.226 Q 216.839 21.464 211.181 21.781 L 211.181 21.781 Z  M 39.752 17.865 L 49.326 39.196 L 45.352 39.27 L 43.463 35.344 L 32.142 35.344 L 30.153 39.27 L 25.948 39.27 L 35.588 17.865 L 39.752 17.865 L 39.752 17.865 Z  M 37.692 22.862 L 34.183 31.206 L 41.378 31.119 L 37.692 22.862 L 37.692 22.862 Z  M 250 27.053 L 250 30.209 L 235.192 30.209 L 235.192 26.87 L 250 27.053 L 250 27.053 Z  M 250 35.69 L 250 39.27 L 235.192 39.396 L 235.192 35.69 L 250 35.69 L 250 35.69 Z  M 106.795 45.564 Q 106.901 45.642 107.166 45.804 L 106.845 46.38 Q 106.554 46.305 106.426 46.236 C 105.358 45.715 103.979 45.93 103.53 46.38 C 103.022 46.995 103.445 47.654 105.423 48.138 C 107.763 48.712 108.181 50.382 106.845 51.434 C 105.919 52.083 103.778 51.871 102.539 51.155 Q 102.422 51.088 102.262 51.013 L 102.691 50.25 Q 102.912 50.337 103.063 50.413 C 103.214 50.49 103.384 50.582 103.546 50.667 C 104.485 51.157 105.658 51.163 106.368 50.667 C 107.216 49.956 106.918 49.206 104.421 48.535 C 102.6 48.1 101.986 46.749 103.039 45.747 C 103.826 45.128 105.58 44.95 106.795 45.564 L 106.795 45.564 Z  M 118.638 45.062 L 119.342 45.062 L 119.469 50.921 L 122.834 50.921 L 122.834 51.689 L 118.709 51.681 L 118.638 45.062 L 118.638 45.062 Z  M 134.288 45.369 L 135.048 45.369 L 139.268 50.372 L 139.268 45.369 L 139.906 45.369 L 139.906 51.689 L 139.268 51.689 L 135.048 46.613 Q 135.048 48.587 135.048 49.352 Q 135.048 50.261 135.048 51.681 L 134.288 51.681 L 134.288 45.369 L 134.288 45.369 Z  M 112.492 45.369 L 113.096 45.369 L 116.22 51.618 L 115.251 51.618 L 114.491 49.995 L 111.231 49.995 L 110.477 51.618 L 109.562 51.618 L 112.492 45.369 L 112.492 45.369 Z  M 112.837 46.475 L 111.615 49.136 L 114.083 49.136 L 112.837 46.475 L 112.837 46.475 Z  M 124.711 48.494 C 124.711 46.656 126.202 45.164 128.04 45.164 C 129.877 45.164 131.369 46.656 131.369 48.494 C 131.369 50.331 129.877 51.823 128.04 51.823 C 126.202 51.823 124.711 50.331 124.711 48.494 Z  M 125.549 48.529 C 125.549 47.154 126.665 46.038 128.04 46.038 C 129.415 46.038 130.531 47.154 130.531 48.529 C 130.531 49.904 129.415 51.02 128.04 51.02 C 126.665 51.02 125.549 49.904 125.549 48.529 Z " fill-rule="evenodd" fill="rgb(255,255,255)"/><path d=" M 108.899 23.976 C 108.115 24.374 107.88 25.578 108.429 26.392 C 110.315 29.189 114.351 33.83 117.032 36.284 C 117.499 36.711 117.912 37.09 117.95 37.127 C 118.444 37.595 120.226 38.947 121.012 39.449 C 122.118 40.156 123.132 39.879 122.854 38.948 C 122.747 38.591 122.567 38.384 121.668 37.585 C 120.396 36.453 118.523 34.603 117.666 33.632 C 117.556 33.508 117.359 33.29 117.229 33.148 C 115.15 30.891 112.978 28.043 111.262 25.323 C 110.361 23.895 109.747 23.545 108.899 23.976 Z " fill-rule="evenodd" fill="rgb(255,255,255)"/><path d=" M 133.422 32.645 C 131.372 33.059 130.56 35.663 132.005 37.189 C 132.878 38.11 134.703 38.275 135.911 37.541 Q 136.123 37.412 136.24 37.237 L 135.538 36.594 Q 135.42 36.664 135.308 36.74 C 134.438 37.334 133.01 37.052 132.569 36.198 C 131.681 34.478 133.697 32.752 135.308 33.854 Q 135.415 33.927 135.505 33.994 L 136.24 33.34 Q 136.143 33.266 136.049 33.187 C 135.472 32.698 134.33 32.462 133.422 32.645 Z " fill-rule="evenodd" fill="rgb(255,255,255)"/><path d=" M 104.96 32.825 L 104.96 37.933 L 106.028 37.933 L 106.053 35.966 L 108.662 35.966 L 108.662 37.933 L 109.76 37.933 L 109.76 32.825 L 108.662 32.825 L 108.662 34.936 L 106.053 34.936 L 106.053 32.825 L 104.96 32.825 Z " fill-rule="evenodd" fill="rgb(255,255,255)"/><path d=" M 120.962 39.749 L 121.345 39.932 Q 121.273 41.308 121.262 41.486 C 121.056 44.977 121.022 45.367 120.922 45.339 C 120.812 45.309 120.415 44.481 120.376 44.204 C 120.323 43.824 120.216 41.936 120.145 40.378 L 120.962 39.749 Z " fill="rgb(255,255,255)"/><path d=" M 121.823 32.56 C 121.972 30.377 122.014 30.176 122.393 29.866 C 122.667 29.642 122.686 29.61 122.685 29.355 C 122.685 29.219 122.685 28.855 122.684 28.546 C 122.68 26.707 122.889 24.073 123.274 21.119 C 123.45 19.763 123.618 19.482 124.765 18.624 C 125.886 17.785 126.352 16.627 126.107 15.292 C 126.004 14.73 125.504 13.87 125.07 13.507 C 123.656 12.326 123.692 11.276 125.189 10.002 C 125.458 9.773 125.491 9.614 125.29 9.511 C 125.063 9.393 124.719 9.524 124.203 9.926 L 124.203 9.926 L 124.203 9.926 C 123.692 10.323 123.364 10.814 122.998 11.728 C 122.678 12.526 122.508 12.743 121.62 13.485 C 120.234 14.644 120.1 16.76 121.324 18.143 C 122.326 19.273 122.463 19.633 122.359 20.857 C 122.07 24.272 121.469 25.881 120.209 26.614 C 119.72 26.898 119.736 26.868 119.763 27.447 C 119.775 27.708 119.786 28.054 119.788 28.215 C 119.791 28.532 119.793 28.588 119.862 30.956 C 119.875 31.388 119.919 32.733 120.006 35.597 L 121.543 37.021 Q 121.755 33.562 121.823 32.56 Z  M 122.949 13.655 C 124.155 13.421 125.309 14.39 125.385 15.703 C 125.511 17.88 123.331 19.103 121.924 17.644 C 120.695 16.369 121.31 13.974 122.949 13.655 L 122.949 13.655 L 122.949 13.655 Z " fill-rule="evenodd" fill="rgb(255,255,255)"/><path d=" M 117.277 12.656 C 115.453 12.455 114.002 14.115 114.272 16.096 C 114.432 17.278 115.025 18.064 116.191 18.643 C 117.609 19.347 117.677 19.435 118.315 21.404 C 118.929 23.302 118.936 23.324 119.36 24.868 C 119.578 25.658 119.781 26.313 119.812 26.323 C 119.886 26.348 121.133 25.125 121.129 25.032 C 121.127 24.993 120.995 24.818 120.836 24.643 C 120.182 23.928 119.588 22.556 118.934 20.246 C 118.654 19.257 118.719 18.847 119.331 17.73 C 119.747 16.973 119.836 16.731 119.901 16.185 C 120.104 14.472 118.886 12.833 117.277 12.656 Z  M 118.035 13.717 C 119.415 14.633 119.542 16.71 118.276 17.669 C 117.022 18.618 115.204 17.668 115.009 15.963 C 114.794 14.075 116.578 12.75 118.035 13.717 Z " fill-rule="evenodd" fill="rgb(255,255,255)"/><path d=" M 121.878 40.136 C 121.762 41.772 121.573 43.93 121.51 44.269 C 121.446 44.615 121.061 45.332 120.922 45.366 C 120.817 45.392 120.805 45.272 120.768 43.852 C 120.752 43.219 120.719 41.997 120.664 39.983 L 120.987 39.722 L 121.878 40.136 Z " fill="rgb(255,255,255)"/><path d=" M 122.447 31.062 C 122.516 30.047 122.516 30.04 122.498 29.901 C 122.479 29.75 122.436 29.73 122.292 29.805 L 122.292 29.805 C 121.816 30.052 121.584 30.18 121.152 30.431 C 120.85 30.606 120.633 30.7 120.59 30.675 C 120.388 30.553 120.348 30.627 120.374 31.079 C 120.387 31.324 120.405 31.713 120.412 31.945 C 120.446 32.991 120.473 33.634 120.5 33.999 Q 120.536 35.301 120.558 36.096 L 122.013 37.466 Q 122.421 31.441 122.447 31.062 Z " fill="rgb(255,255,255)"/><path d=" M 120.332 39.986 L 120.332 39.986 C 120.051 40.171 119.149 41.091 118.817 41.533 C 118.276 42.253 118.072 42.335 118.077 41.834 C 118.081 41.357 118.53 40.641 119.354 39.795 L 119.354 39.795 C 119.471 39.674 119.679 39.471 120.035 39.15 L 120.713 39.665 Q 120.355 39.971 120.332 39.986 Z " fill="rgb(255,255,255)"/><path d=" M 125.548 36.191 C 126.272 35.456 126.579 35.074 128.054 33.073 C 128.797 32.066 129.933 30.71 131.054 29.493 C 131.776 28.709 132.844 27.473 132.94 27.31 C 133.266 26.758 132.941 25.871 132.081 24.964 C 131.612 24.47 131.649 24.457 130.809 25.409 L 130.809 25.409 C 130.417 25.853 129.97 26.357 129.815 26.529 C 129.591 26.776 128.697 27.783 127.949 28.63 C 127.067 29.629 126.755 29.979 126.169 30.629 C 125.788 31.052 125.395 31.493 125.296 31.608 C 125.197 31.723 124.867 32.095 124.562 32.434 C 123.917 33.151 123.905 33.18 124.1 33.518 C 124.907 34.911 124.558 35.774 122.599 37.241 C 122.53 37.292 122.362 37.431 122.135 37.585 L 122.746 38.2 Q 125.116 36.63 125.548 36.191 Z " fill="rgb(255,255,255)"/></g></g></svg>