<?xml version="1.0" encoding="UTF-8" standalone="no"?><!-- Generator: Gravit.io --><svg xmlns="http://www.w3.org/2000/svg" xmlns:xlink="http://www.w3.org/1999/xlink" style="isolation:isolate" viewBox="0 0 250 289" width="250pt" height="289pt"><path d=" M 220.814 28.343 C 215.709 29.075 211.506 31.17 205.379 36.039 C 200.031 40.289 197.998 41.117 188.923 42.743 C 174.752 45.282 165.532 59.368 168.634 73.741 C 171.169 85.493 170.714 88.522 165.203 96.561 C 149.821 119.005 139.343 127.747 127.711 127.844 C 123.2 127.88 123.434 127.734 121.351 131.835 C 120.411 133.685 119.135 136.118 118.515 137.242 C 117.302 139.442 117.092 139.838 108.307 156.458 C 105.097 162.53 100.643 170.944 98.409 175.157 C 95.706 180.251 94.455 183.008 94.676 183.393 C 95.497 184.824 103.161 193.06 103.558 192.936 C 104.056 192.781 104.648 191.915 115.657 175.266 C 125.24 160.775 126.322 159.556 130.169 158.911 C 132.951 158.443 133.203 158.295 134.201 156.534 C 134.734 155.593 136.156 153.076 137.362 150.939 C 144.533 138.226 156.296 120.864 170.535 101.977 C 177.067 93.311 179.338 92.032 190.673 90.625 C 201.746 89.252 209.525 83.09 213.045 72.908 C 214.527 68.618 214.42 60.709 212.821 56.493 C 207.615 42.766 211.975 35.655 227.375 32.755 C 230.14 32.235 230.986 31.269 230 29.763 C 228.879 28.052 225.975 27.603 220.814 28.343 Z  M 59.665 42.82 C 45.33 45.928 38.514 62.104 45.542 76.339 C 49.734 84.828 56.204 89.246 66.5 90.646 C 79.024 92.351 79.762 92.844 89.549 106.05 C 98.984 118.779 99.09 118.929 106.194 129.474 C 109.829 134.872 113.019 139.287 113.281 139.287 C 113.904 139.287 120.28 126.922 120.014 126.23 C 119.902 125.939 118.462 124.957 116.812 124.048 C 110.057 120.32 102.103 111.493 91.326 95.761 C 86.715 89.03 86.174 85.777 88.007 75.815 C 89.25 69.058 89.317 67.017 88.434 62.741 C 85.662 49.326 72.308 40.078 59.665 42.82 Z  M 68.076 48.885 C 80.845 52.285 87.032 67.599 79.85 78.028 C 72.74 88.352 56.568 85.809 50.797 73.461 C 44.411 59.794 54.604 45.298 68.076 48.885 Z  M 197.493 49.156 C 206.802 52.292 211.028 63.535 206.419 72.899 C 198.773 88.428 178.822 88.278 174.755 72.659 C 171.2 59.007 184.85 44.898 197.493 49.156 Z  M 31.495 118.07 C 25.212 121.201 23.292 130.752 27.646 137.232 C 42.61 159.507 74.694 196.505 96.029 216.088 C 99.74 219.493 103.026 222.52 103.334 222.812 C 107.259 226.548 121.451 237.347 127.715 241.364 C 136.525 247.013 144.645 244.856 142.452 237.451 C 141.613 234.619 140.179 232.965 133.031 226.588 C 122.905 217.554 108.007 202.798 101.192 195.055 C 100.321 194.066 98.758 192.328 97.717 191.196 C 81.192 173.206 63.944 150.515 50.329 128.857 C 43.181 117.484 38.291 114.684 31.495 118.07 Z  M 206.159 128.337 C 203.042 131.872 199.48 135.882 198.243 137.248 C 196.465 139.214 189.339 147.237 183.389 153.975 C 176.365 161.927 173.88 164.716 169.215 169.894 C 166.179 173.263 163.051 176.769 162.264 177.687 C 161.478 178.604 158.848 181.562 156.42 184.26 C 151.28 189.974 151.182 190.203 152.756 192.884 C 159.236 203.918 156.475 210.779 140.852 222.471 C 138.687 224.091 136.914 225.57 136.914 225.758 C 136.914 226.368 141.596 230.65 142.272 230.658 C 144.238 230.683 158.752 219.795 164.397 214.061 C 170.161 208.206 172.606 205.164 184.345 189.241 C 190.252 181.23 199.3 170.433 208.225 160.743 C 213.975 154.501 222.476 144.664 223.24 143.371 C 225.83 138.981 223.211 131.946 216.312 124.769 C 212.551 120.855 212.848 120.751 206.159 128.337 Z  M 142.508 148.588 C 140.285 152.251 139.229 154.084 137.322 157.583 C 135.989 160.03 134.899 161.572 134.5 161.576 C 132.616 161.594 132.653 162.263 134.7 165.22 C 135.805 166.817 137.539 169.384 138.551 170.924 C 146.485 182.998 149.229 186.919 149.749 186.919 C 150.08 186.919 151.994 185.029 154.004 182.72 C 156.015 180.411 157.96 178.272 158.326 177.968 C 159.44 177.043 159.132 176.111 155.37 169.016 C 153.378 165.258 150.406 159.607 148.766 156.458 C 145.035 149.299 145.009 149.25 144.313 148.384 C 143.554 147.439 143.18 147.481 142.508 148.588 Z  M 227.477 186.109 C 211.093 189.389 204.603 210.067 216.154 222.178 C 223.129 229.49 237.716 230.795 247.366 224.971 Q 249.062 223.948 250 222.559 L 244.385 217.453 Q 243.446 218.008 242.552 218.614 C 235.6 223.331 224.181 221.087 220.659 214.312 C 213.562 200.655 229.671 186.959 242.552 195.7 Q 243.406 196.279 244.125 196.813 L 250 191.619 Q 249.222 191.036 248.472 190.405 C 243.859 186.524 234.732 184.657 227.477 186.109 Z  M 0 187.532 L 0 228.081 L 8.534 228.081 L 8.738 212.472 L 29.59 212.472 L 29.59 228.081 L 38.366 228.081 L 38.366 187.532 L 29.59 187.532 L 29.59 204.295 L 8.738 204.295 L 8.738 187.532 L 0 187.532 Z  M 81.186 207.847 C 78.537 212.124 61.847 245.327 60.014 249.969 C 59.197 252.035 58.722 259.321 59.362 259.961 C 59.948 260.547 61.712 257.993 76.813 234.698 C 79.174 231.055 82.992 225.211 85.297 221.711 C 90.345 214.044 90.31 214.632 85.962 210.504 C 81.818 206.57 81.936 206.635 81.186 207.847 Z  M 171.294 210.795 C 167.175 215.584 166.983 214.429 173.554 224.437 C 179.596 233.641 182.553 238.178 190.264 250.087 C 196.392 259.549 196.972 260.311 197.582 259.702 C 198.393 258.889 198.046 252.43 197.051 249.818 C 195.651 246.148 179.952 215.099 175.842 207.872 C 175.064 206.506 174.884 206.622 171.294 210.795 Z  M 114.984 242.83 C 108.427 249.567 104.858 255.269 104.833 259.049 C 104.807 263.033 106.432 262.37 110.739 256.64 C 113.382 253.125 120.565 245.796 122.811 244.324 C 124.387 243.292 124.082 242.305 121.69 240.694 C 118.841 238.776 118.969 238.735 114.984 242.83 Z " fill-rule="evenodd" fill="rgb(255,255,255)"/></svg>